<svg width="953" height="549" viewBox="0 0 953 549" fill="none" xmlns="http://www.w3.org/2000/svg">
<g opacity="0.4">
<path d="M231.138 549C177.799 549 133.942 537.1 99.5672 513.301C65.1928 489.502 39.7083 458.563 23.1138 420.484C7.70461 382.405 0 342.541 0 300.893C0 236.634 14.8165 176.541 44.4496 120.613C74.0827 63.4946 110.235 14.7061 152.907 -25.7527C196.764 -67.4014 240.028 -97.1505 282.7 -115L437.384 -9.68816C405.381 5.78139 373.97 23.6309 343.151 43.8603C312.333 64.0896 284.478 86.104 259.586 109.903C234.694 133.703 215.136 158.097 200.912 183.086L209.802 190.226C219.285 184.276 228.767 180.111 238.25 177.731C248.918 175.351 262.549 174.161 279.144 174.161C305.221 174.161 331.298 180.706 357.375 193.796C383.452 205.695 405.381 224.14 423.16 249.129C440.94 274.118 449.83 305.652 449.83 343.731C449.83 391.33 439.162 430.599 417.826 461.538C397.676 491.287 371.006 513.301 337.817 527.581C304.628 541.86 269.068 549 231.138 549ZM734.308 549C680.968 549 637.111 537.1 602.737 513.301C568.363 489.502 542.878 458.563 526.284 420.484C510.874 382.405 503.17 342.541 503.17 300.893C503.17 236.634 517.986 176.541 547.619 120.613C577.253 63.4946 613.405 14.7061 656.076 -25.7527C699.933 -67.4014 743.198 -97.1505 785.869 -115L940.554 -9.68816C908.55 5.78139 877.139 23.6309 846.321 43.8603C815.503 64.0896 787.647 86.104 762.756 109.903C737.864 133.703 718.306 158.097 704.082 183.086L712.972 190.226C722.455 184.276 731.937 180.111 741.42 177.731C752.088 175.351 765.719 174.161 782.313 174.161C808.391 174.161 834.468 180.706 860.545 193.796C886.622 205.695 908.55 224.14 926.33 249.129C944.11 274.118 953 305.652 953 343.731C953 391.33 942.332 430.599 920.996 461.538C900.846 491.287 874.176 513.301 840.987 527.581C807.798 541.86 772.238 549 734.308 549Z" fill="#D8D4C4"/>
<path d="M231.138 549C177.799 549 133.942 537.1 99.5672 513.301C65.1928 489.502 39.7083 458.563 23.1138 420.484C7.70461 382.405 0 342.541 0 300.893C0 236.634 14.8165 176.541 44.4496 120.613C74.0827 63.4946 110.235 14.7061 152.907 -25.7527C196.764 -67.4014 240.028 -97.1505 282.7 -115L437.384 -9.68816C405.381 5.78139 373.97 23.6309 343.151 43.8603C312.333 64.0896 284.478 86.104 259.586 109.903C234.694 133.703 215.136 158.097 200.912 183.086L209.802 190.226C219.285 184.276 228.767 180.111 238.25 177.731C248.918 175.351 262.549 174.161 279.144 174.161C305.221 174.161 331.298 180.706 357.375 193.796C383.452 205.695 405.381 224.14 423.16 249.129C440.94 274.118 449.83 305.652 449.83 343.731C449.83 391.33 439.162 430.599 417.826 461.538C397.676 491.287 371.006 513.301 337.817 527.581C304.628 541.86 269.068 549 231.138 549ZM734.308 549C680.968 549 637.111 537.1 602.737 513.301C568.363 489.502 542.878 458.563 526.284 420.484C510.874 382.405 503.17 342.541 503.17 300.893C503.17 236.634 517.986 176.541 547.619 120.613C577.253 63.4946 613.405 14.7061 656.076 -25.7527C699.933 -67.4014 743.198 -97.1505 785.869 -115L940.554 -9.68816C908.55 5.78139 877.139 23.6309 846.321 43.8603C815.503 64.0896 787.647 86.104 762.756 109.903C737.864 133.703 718.306 158.097 704.082 183.086L712.972 190.226C722.455 184.276 731.937 180.111 741.42 177.731C752.088 175.351 765.719 174.161 782.313 174.161C808.391 174.161 834.468 180.706 860.545 193.796C886.622 205.695 908.55 224.14 926.33 249.129C944.11 274.118 953 305.652 953 343.731C953 391.33 942.332 430.599 920.996 461.538C900.846 491.287 874.176 513.301 840.987 527.581C807.798 541.86 772.238 549 734.308 549Z" fill="url(#paint0_linear_234_58329)"/>
</g>
<defs>
<linearGradient id="paint0_linear_234_58329" x1="476.5" y1="-486.5" x2="519" y2="575.5" gradientUnits="userSpaceOnUse">
<stop offset="0.488015" stop-color="#FBFAF0"/>
<stop offset="0.608993" stop-color="#D8D4C4" stop-opacity="0"/>
</linearGradient>
</defs>
</svg>
