<svg width="30" height="30" viewBox="0 0 20 20" fill="none" xmlns="http://www.w3.org/2000/svg">
    <path d="M10 20C15.5228 20 20 15.5228 20 10C20 4.47715 15.5228 0 10 0C4.47715 0 0 4.47715 0 10C0 15.5228 4.47715 20 10 20Z" fill="#039BE5"/>
    <path d="M4.63568 9.70572L14.1157 5.90853C14.5557 5.7434 14.9399 6.02004 14.7974 6.71121L14.7982 6.71036L13.1841 14.6103C13.0644 15.1704 12.7441 15.3066 12.2959 15.0427L9.83779 13.1607L8.65218 14.3473C8.52108 14.4835 8.41047 14.5984 8.15647 14.5984L8.33099 11.9997L12.8866 7.72413C13.0849 7.54283 12.8424 7.44069 12.581 7.62114L6.95119 11.3034L4.52425 10.5169C3.9974 10.3433 3.98593 9.96959 4.63568 9.70572V9.70572Z" fill="white"/>
</svg>
