<svg version="1.1" id="layer" xmlns="http://www.w3.org/2000/svg" xmlns:xlink="http://www.w3.org/1999/xlink" x="0px" y="0px" style="enable-background:new 0 0 652 652;" xml:space="preserve" viewBox="25.78 236.38 600.02 179.92">
<style type="text/css">
	.st0{fill:#272627;}
	.st1{fill:#E5001E;}
</style>
<rect x="257.4" y="307.6" class="st0" width="10" height="65.4"/>
<rect x="230.6" y="279.9" class="st0" width="81.7" height="10"/>
<rect x="275.5" y="307.6" class="st0" width="10" height="65.4"/>
<polygon class="st0" points="562.4,373.1 572.6,373.1 572.6,333.7 562.4,322.5 "/>
<polygon class="st0" points="544.2,373.1 554.2,373.1 554.2,300 625.8,379.6 625.8,279.9 615.7,279.9 615.7,353 544.2,273.5 "/>
<g>
	<path class="st0" d="M478.7,279.9c-25.7,0-46.6,20.9-46.6,46.6s20.9,46.6,46.6,46.6c25.7,0,46.6-20.9,46.6-46.6   C525.3,300.8,504.4,279.9,478.7,279.9 M478.7,363.1c-20.2,0-36.6-16.4-36.6-36.6s16.4-36.6,36.6-36.6c20.2,0,36.6,16.4,36.6,36.6   C515.2,346.6,498.8,363.1,478.7,363.1"/>
	<path class="st0" d="M478.7,319.8c-3.7,0-6.7,3-6.7,6.7c0,3.7,3,6.7,6.7,6.7c3.7,0,6.7-3,6.7-6.7   C485.4,322.8,482.4,319.8,478.7,319.8"/>
	<path class="st0" d="M414.5,308.5c0-15.8-12.7-28.6-28.4-28.6h-53.3v93.2h10V290h43.4c10,0,18.2,8.3,18.2,18.5   c0,10.1-8.1,18.4-18,18.5l-35.4,0v46.2h10v-36.1h23.3l19.1,36.1h11.6L395,335.7C406.5,331.9,414.5,320.8,414.5,308.5"/>
	<path class="st1" d="M161.7,261.4l-135.9-25l71.5,179.9L196.9,295L161.7,261.4z M159.5,272.5l20.8,19.8l-56.8,10.3L159.5,272.5z    M111.1,300.5l-59.9-49.7l97.9,18L111.1,300.5z M106.8,309.3L97.1,390L44.4,257.4L106.8,309.3z M115.9,313.5l62.9-11.4l-72.2,88   L115.9,313.5z"/>
</g>
</svg>