<svg width="30" height="30" viewBox="0 0 20 20" fill="none" xmlns="http://www.w3.org/2000/svg">
    <path d="M9.99997 0C15.5231 0 20 4.4775 20 10C20 15.5232 15.5231 20 9.99997 20C4.47681 20 0 15.5231 0 10C0 4.4775 4.47688 0 9.99997 0Z" fill="#26A6D1"/>
    <path d="M16.2519 6.73704C15.8151 6.92577 15.345 7.05264 14.8519 7.11017C15.3557 6.81702 15.7419 6.35388 15.9238 5.80081C15.4526 6.07268 14.9313 6.26958 14.3757 6.37517C13.9313 5.91581 13.2982 5.62891 12.5969 5.62891C11.2519 5.62891 10.1607 6.68706 10.1607 7.99326C10.1607 8.17889 10.182 8.35952 10.2238 8.53266C8.1988 8.43394 6.40255 7.49202 5.20133 6.06142C4.99132 6.4108 4.87131 6.8164 4.87131 7.25015C4.87131 8.07015 5.30128 8.79513 5.95507 9.2183C5.5551 9.20581 5.18004 9.10015 4.85071 8.92207V8.95207C4.85071 10.0983 5.69069 11.054 6.80568 11.2714C6.6013 11.3252 6.38628 11.3546 6.16378 11.3546C6.0069 11.3546 5.85442 11.3402 5.70565 11.3121C6.01562 12.2521 6.91567 12.9358 7.98254 12.9546C7.1482 13.5896 6.09753 13.9671 4.95568 13.9671C4.75879 13.9671 4.56505 13.9559 4.37378 13.934C5.45315 14.6053 6.73319 14.9971 8.11003 14.9971C12.5925 14.9971 15.0438 11.3921 15.0438 8.26711L15.0369 7.96085C15.5119 7.6283 15.925 7.21205 16.2519 6.73704Z" fill="white"/>
</svg>
